<svg width="60" height="44" xmlns="http://www.w3.org/2000/svg">
  <g fill="none" fill-rule="evenodd">
    <path d="M2.472 12.672l13.022-3.267c2.205-.554 4.435.808 4.965 3.031l3.639 15.266-17.02 5.092-4.606-20.122z"
      fill="#98CA3F" />
    <path d="M17.919 19.169l4.589 16.719 28.929-8.654a4.982 4.982 0 003.556-4.786l-.047-15.642L17.919 19.17z"
      fill="#98CA3F" />
    <path d="M9.886 41.438l-8.15-30.863a.88.88 0 00-1.083-.643c-.471.132-.75.634-.622 1.122l7.974 30.402 1.881-.018z"
      fill="#FFF" />
    <path fill="#06BE9F" d="M42.711 19.8l-10.087 1.487-4.819.71 3.742 15.128H41.95l5.628-.91z" />
    <path
      d="M47.917 34.318a8.389 8.389 0 01-3.59 2.012c-4.844 1.301-9.93-1.954-11.36-7.272-1.428-5.318 1.34-10.684 6.184-11.985a8.359 8.359 0 013.634-.158c-2.347-3.52-6.748-5.337-11.07-4.205a10.147 10.147 0 00-4.887 2.922 10.189 10.189 0 00-2.395 9.526l3.296 12.586h21.085l-.897-3.426z"
      fill="#FFF" />
    <path fill="#C9C9C9"
      d="M50.05 41.456H28.838l-1.033-3.712h21.213zM41.286 21.264a13.232 13.232 0 013.203-.457l-.238-.908a10.154 10.154 0 00-1.371-3.065 8.296 8.296 0 00-3.612.158c-4.673 1.258-7.403 6.33-6.26 11.47 1.203-3.302 4.24-6.11 8.278-7.198" />
    <path fill="#FFB25B" d="M26.646 19.8l-10.088 1.487-4.818.71 3.742 15.128h10.403l5.628-.91z" />
    <path
      d="M31.852 34.318a8.389 8.389 0 01-3.59 2.012c-4.845 1.301-9.93-1.954-11.36-7.272-1.429-5.318 1.34-10.684 6.184-11.985a8.359 8.359 0 013.634-.158c-2.348-3.52-6.748-5.337-11.07-4.205a10.147 10.147 0 00-4.887 2.922 10.189 10.189 0 00-2.395 9.526l3.296 12.586h21.085l-.897-3.426z"
      fill="#FFF" />
    <path fill="#C9C9C9"
      d="M33.984 41.456H12.773l-1.033-3.712h21.212zM25.22 21.264a13.232 13.232 0 013.203-.457l-.237-.908a10.154 10.154 0 00-1.372-3.065 8.295 8.295 0 00-3.611.158c-4.674 1.258-7.403 6.33-6.26 11.47 1.202-3.302 4.24-6.11 8.278-7.198" />
    <path fill="#FFF"
      d="M12.05 2.475l.381 1.156 1.163.026-.926.74.336 1.172-.955-.7-.955.7.337-1.172-.927-.74 1.163-.026zM33.058 6.188l.382 1.156 1.162.025-.926.74.336 1.172-.954-.699-.955.7.336-1.173-.926-.74 1.162-.025zM40.164 0l.305.925.93.02-.74.593.268.937-.763-.56-.764.56.269-.937-.741-.593.93-.02zM24.098 2.475a.619.619 0 11-1.237 0 .619.619 0 011.237 0M27.805 9.59a.31.31 0 11-.618.001.31.31 0 01.618 0M3.707 4.022a.31.31 0 11-.618 0 .31.31 0 01.618 0M44.489 4.022a.31.31 0 11-.619 0 .31.31 0 01.619 0" />
    <path d="M31.027 34.215h7.636v9.097h-7.636z" />
    <path
      d="M38.603 43.313l-.807-.082c.237-2.692-.273-5.276-1.517-6.537-1.954-1.982-5.099-1.497-5.13-1.492l-.122-.92a7.991 7.991 0 012.046-.006c1.53.185 2.832.842 3.763 1.786 1.434 1.455 2.028 4.279 1.767 7.25"
      fill="#27273C" />
    <path d="M32.749 34.65a1.855 1.855 0 11-3.707 0c0-1.025.83-1.856 1.853-1.856 1.024 0 1.854.831 1.854 1.856"
      fill="#27273C" />
    <path d="M51.557 34.27h7.623v6.907h-7.623z" />
    <path
      d="M56.809 36.624c.951.94 1.473 2.635 1.56 4.553h.81c-.09-2.156-.698-4.066-1.814-5.168-.931-.92-2.232-1.5-3.763-1.68-1.142-.134-2.009 0-2.045.005l.12.837c.033-.005 3.178-.477 5.132 1.453"
      fill="#FFF" />
    <path d="M53.14 34.65a1.855 1.855 0 11-3.707 0c-.001-1.025.829-1.856 1.853-1.856 1.023 0 1.853.831 1.853 1.856"
      fill="#FFF" />
  </g>
</svg>